HIERARCHY
ROOT hip
{
  OFFSET 198.333 82.3274 2.44143
  CHANNELS 6 Xposition Yposition Zposition Zrotation Xrotation Yrotation
  JOINT abdomen
  {
    OFFSET 0 20.6881 -0.73152
    CHANNELS 3 Zrotation Xrotation Yrotation
    JOINT chest
    {
      OFFSET 0 11.7043 -0.48768
      CHANNELS 3 Zrotation Xrotation Yrotation
      JOINT neck
      {
        OFFSET 0 22.1894 -2.19456
        CHANNELS 3 Zrotation Xrotation Yrotation
        JOINT head
        {
          OFFSET -0.24384 7.07133 1.2192
          CHANNELS 3 Zrotation Xrotation Yrotation
          JOINT leftEye
          {
            OFFSET 4.14528 8.04674 8.04672
            CHANNELS 3 Zrotation Xrotation Yrotation
            End Site
            {
              OFFSET 1 0 0
            }
          }
          JOINT rightEye
          {
            OFFSET -3.6576 8.04674 8.04672
            CHANNELS 3 Zrotation Xrotation Yrotation
            End Site
            {
              OFFSET 1 0 0
            }
          }
        }
      }
      JOINT rCollar
      {
        OFFSET -2.68224 19.2634 -4.8768
        CHANNELS 3 Zrotation Xrotation Yrotation
        JOINT rShldr
        {
          OFFSET -8.77824 -1.95073 1.46304
          CHANNELS 3 Zrotation Xrotation Yrotation
          JOINT rForeArm
          {
            OFFSET -28.1742 -1.7115 0.48768
            CHANNELS 3 Zrotation Xrotation Yrotation
            JOINT rHand
            {
              OFFSET -22.5879 0.773209 7.07136
              CHANNELS 3 Zrotation Xrotation Yrotation
              JOINT rThumb1
              {
                OFFSET -1.2192 -0.487915 3.41376
                CHANNELS 3 Zrotation Xrotation Yrotation
                JOINT rThumb2
                {
                  OFFSET -3.37035 -0.52449 3.41376
                  CHANNELS 3 Zrotation Xrotation Yrotation
                  End Site
                  {
                    OFFSET -1.78271 -1.18214 1.43049
                  }
                }
              }
              JOINT rIndex1
              {
                OFFSET -7.75947 0.938293 5.60832
                CHANNELS 3 Zrotation Xrotation Yrotation
                JOINT rIndex2
                {
                  OFFSET -2.54057 -0.884171 1.56538
                  CHANNELS 3 Zrotation Xrotation Yrotation
                  End Site
                  {
                    OFFSET -1.62519 -0.234802 1.16502
                  }
                }
              }
              JOINT rMid1
              {
                OFFSET -8.24714 1.18213 3.41376
                CHANNELS 3 Zrotation Xrotation Yrotation
                JOINT rMid2
                {
                  OFFSET -3.10165 -0.590103 1.0647
                  CHANNELS 3 Zrotation Xrotation Yrotation
                  End Site
                  {
                    OFFSET -2.48547 -0.328903 0.83742
                  }
                }
              }
              JOINT rRing1
              {
                OFFSET -8.82822 0.546677 1.51678
                CHANNELS 3 Zrotation Xrotation Yrotation
                JOINT rRing2
                {
                  OFFSET -2.60934 -0.819778 -0.0198488
                  CHANNELS 3 Zrotation Xrotation Yrotation
                  End Site
                  {
                    OFFSET -2.33842 -0.294052 0.168128
                  }
                }
              }
              JOINT rPinky1
              {
                OFFSET -8.27202 -0.0477905 -0.4584
                CHANNELS 3 Zrotation Xrotation Yrotation
                JOINT rPinky2
                {
                  OFFSET -1.82734 -0.647385 -0.700984
                  CHANNELS 3 Zrotation Xrotation Yrotation
                  End Site
                  {
                    OFFSET -1.69225 -0.51767 -0.607171
                  }
                }
              }
            }
          }
        }
      }
      JOINT lCollar
      {
        OFFSET 2.68224 19.2634 -4.8768
        CHANNELS 3 Zrotation Xrotation Yrotation
        JOINT lShldr
        {
          OFFSET 8.77824 -1.95073 1.46304
          CHANNELS 3 Zrotation Xrotation Yrotation
          JOINT lForeArm
          {
            OFFSET 28.1742 -1.7115 0.48768
            CHANNELS 3 Zrotation Xrotation Yrotation
            JOINT lHand
            {
              OFFSET 22.5879 0.773209 7.07136
              CHANNELS 3 Zrotation Xrotation Yrotation
              JOINT lThumb1
              {
                OFFSET 1.2192 -0.487915 3.41376
                CHANNELS 3 Zrotation Xrotation Yrotation
                JOINT lThumb2
                {
                  OFFSET 3.37035 -0.52449 3.41376
                  CHANNELS 3 Zrotation Xrotation Yrotation
                  End Site
                  {
                    OFFSET 1.78271 -1.18214 1.43049
                  }
                }
              }
              JOINT lIndex1
              {
                OFFSET 7.75947 0.938293 5.60832
                CHANNELS 3 Zrotation Xrotation Yrotation
                JOINT lIndex2
                {
                  OFFSET 2.54057 -0.884171 1.56538
                  CHANNELS 3 Zrotation Xrotation Yrotation
                  End Site
                  {
                    OFFSET 1.62519 -0.234802 1.16502
                  }
                }
              }
              JOINT lMid1
              {
                OFFSET 8.24714 1.18213 3.41376
                CHANNELS 3 Zrotation Xrotation Yrotation
                JOINT lMid2
                {
                  OFFSET 3.10165 -0.590103 1.0647
                  CHANNELS 3 Zrotation Xrotation Yrotation
                  End Site
                  {
                    OFFSET 2.48547 -0.328903 0.83742
                  }
                }
              }
              JOINT lRing1
              {
                OFFSET 8.82822 0.546677 1.51678
                CHANNELS 3 Zrotation Xrotation Yrotation
                JOINT lRing2
                {
                  OFFSET 2.60934 -0.819778 -0.0198488
                  CHANNELS 3 Zrotation Xrotation Yrotation
                  End Site
                  {
                    OFFSET 2.33842 -0.294052 0.168128
                  }
                }
              }
              JOINT lPinky1
              {
                OFFSET 8.27202 -0.0477905 -0.4584
                CHANNELS 3 Zrotation Xrotation Yrotation
                JOINT lPinky2
                {
                  OFFSET 1.82734 -0.647385 -0.700984
                  CHANNELS 3 Zrotation Xrotation Yrotation
                  End Site
                  {
                    OFFSET 1.69225 -0.51767 -0.607171
                  }
                }
              }
            }
          }
        }
      }
    }
  }
  JOINT rButtock
  {
    OFFSET -8.77824 4.35084 1.2192
    CHANNELS 3 Zrotation Xrotation Yrotation
    JOINT rThigh
    {
      OFFSET 0 -1.70687 -2.19456
      CHANNELS 3 Zrotation Xrotation Yrotation
      JOINT rShin
      {
        OFFSET 0 -36.8199 0.73152
        CHANNELS 3 Zrotation Xrotation Yrotation
        JOINT rFoot
        {
          OFFSET 0.73152 -45.1104 -5.12064
          CHANNELS 3 Zrotation Xrotation Yrotation
          End Site
          {
            OFFSET -1.1221 -3.69964 12.103
          }
        }
      }
    }
  }
  JOINT lButtock
  {
    OFFSET 8.77824 4.35084 1.2192
    CHANNELS 3 Zrotation Xrotation Yrotation
    JOINT lThigh
    {
      OFFSET 0 -1.70687 -2.19456
      CHANNELS 3 Zrotation Xrotation Yrotation
      JOINT lShin
      {
        OFFSET 0 -36.8199 0.73152
        CHANNELS 3 Zrotation Xrotation Yrotation
        JOINT lFoot
        {
          OFFSET -0.73152 -45.1104 -5.12064
          CHANNELS 3 Zrotation Xrotation Yrotation
          End Site
          {
            OFFSET 1.1221 -3.69964 12.103
          }
        }
      }
    }
  }
}
MOTION
Frames:	8
Frame Time:	0.00833333
-195.571 84.0179 -14.0748 1.25801 0.00299717 -0.0235541 -1.65556 -0.00357308 -0.0452762 -0.45714 0.000160114 -0.0791708 -6.36813e-015 0 1.98785e-016 -1.9279e-014 3.18055e-015 6.69345e-016 -0 0 0 -0 0 0 -3.43084e-015 -6.34791e-017 2.48481e-016 -6.76145e-014 -1.22377e-015 2.78299e-015 -1.18013e-012 3.02948e-013 1.27222e-014 -1.34667e-011 -5.97298e-013 3.97569e-013 -3.17728e-011 -6.41399e-013 9.09639e-013 -5.48809e-011 -1.10365e-012 1.56324e-012 -3.17682e-011 -6.40882e-013 9.00097e-013 7.73091 5.47488 0.417314 -3.17731e-011 -6.41578e-013 9.06458e-013 2.90554 0.965183 0.102902 -3.17638e-011 -6.41379e-013 9.09639e-013 10.2786 0.731801 0.0259123 -3.17819e-011 -6.39292e-013 9.16e-013 2.22167 -0.733487 -0.20892 -3.52683e-015 -6.7944e-017 -4.96962e-017 -7.07839e-014 -1.41013e-015 9.93923e-016 -1.17278e-012 -3.98961e-013 7.95139e-014 -1.34539e-011 1.00411e-013 3.40319e-013 -3.17288e-011 -6.51119e-013 9.12819e-013 -5.47847e-011 -1.1291e-012 1.56881e-012 -3.17352e-011 -6.48833e-013 9.16e-013 -7.73091 5.47488 -0.417314 -3.17285e-011 -6.51219e-013 9.12819e-013 -2.90554 0.965183 -0.102902 -3.17331e-011 -6.50821e-013 9.11229e-013 -10.2786 0.731801 -0.0259123 -3.17225e-011 -6.49231e-013 9.03278e-013 -2.22167 -0.733487 0.20892 -2.03217e-016 0 -3.88251e-019 -0.807535 -1.9234 -0.00364858 -0.00879 -2.07862 -0.0723196 -0.447947 3.9978 0.130828 2.03217e-016 0 3.88251e-019 -1.71763 -6.77987 0.164472 -0.00322806 6.71844 -0.0840707 0.482149 0.0572917 -0.0559015 
-190.547 83.2786 -16.8103 -3.45328 -5.1426 20.0121 0.341009 6.13573 -0.842146 0.345865 -0.255701 -0.135161 -0.228328 2.69198 1.11497 -1.36877 -3.1697 2.1682 -0 0 0 -0 0 0 4.02095e-014 -4.28219e-013 9.40589e-014 18.1981 11.8543 0.115994 -6.86901 -3.92384 9.71432 7.12361e-005 0.187287 0.026321 -4.86544e-010 6.34586e-011 -1.67831e-010 -8.40183e-010 1.09141e-010 -2.89304e-010 -4.8654e-010 6.34606e-011 -1.67838e-010 7.73091 5.47488 0.417314 -4.86545e-010 6.34604e-011 -1.67835e-010 2.90554 0.965183 0.102902 -4.86537e-010 6.34615e-011 -1.67831e-010 10.2786 0.731801 0.0259123 -4.8655e-010 6.3462e-011 -1.67825e-010 2.22167 -0.733487 -0.20892 4.0141e-014 -4.28222e-013 9.37879e-014 -21.5575 5.96331 1.28839 8.09735 -5.0159 -10.8633 -0.000495839 -0.493935 0.0694088 -9.46671e-010 2.37092e-010 1.2405e-010 -1.63769e-009 4.10438e-010 2.15813e-010 -9.46675e-010 2.37096e-010 1.24057e-010 -7.73091 5.47488 -0.417314 -9.4667e-010 2.37093e-010 1.2405e-010 -2.90554 0.965183 -0.102902 -9.46676e-010 2.37094e-010 1.24051e-010 -10.2786 0.731801 -0.0259123 -9.46666e-010 2.37094e-010 1.24043e-010 -2.22167 -0.733487 0.20892 -2.03217e-016 0 -3.88251e-019 1.6735 1.06803 -0.455155 0.0066546 -0.859402 0.0185709 -0.678446 -0.297425 -4.44171 2.03217e-016 0 3.88251e-019 1.98105 -12.6781 2.49751 0.0167931 14.7675 -0.202927 0.59287 -1.84217 0.818654 
-190.544 83.2816 -16.8044 -4.84039 -8.47535 41.5744 2.64326 12.6226 -1.7165 1.19416 -0.525547 -0.194333 -0.583863 5.5342 2.30177 -2.55334 -6.50641 4.48218 -0 0 0 -0 0 0 8.74564e-014 -8.90559e-013 1.93185e-013 37.3778 24.3858 0.256284 -12.703 -7.69609 20.1267 -4.04764e-005 0.384676 0.0540626 -9.79258e-010 1.55872e-010 -3.49937e-010 -1.69091e-009 2.68264e-010 -6.03139e-010 -9.79256e-010 1.55876e-010 -3.49942e-010 7.73091 5.47488 0.417314 -9.79261e-010 1.55876e-010 -3.49942e-010 2.90554 0.965183 0.102902 -9.79255e-010 1.55878e-010 -3.49938e-010 10.2786 0.731801 0.0259123 -9.79262e-010 1.55877e-010 -3.49932e-010 2.22167 -0.733487 -0.20892 8.74178e-014 -8.9056e-013 1.92942e-013 -44.6444 12.2557 2.69602 14.6171 -9.71558 -22.6031 0.000281569 -1.01635 0.142836 -1.94914e-009 4.99942e-010 2.71746e-010 -3.37209e-009 8.6546e-010 4.72541e-010 -1.94914e-009 4.99947e-010 2.71757e-010 -7.73091 5.47488 -0.417314 -1.94913e-009 4.99945e-010 2.71747e-010 -2.90554 0.965183 -0.102902 -1.94914e-009 4.99945e-010 2.7175e-010 -10.2786 0.731801 -0.0259123 -1.94913e-009 4.99944e-010 2.71741e-010 -2.22167 -0.733487 0.20892 -2.03217e-016 0 -3.88251e-019 4.34963 4.22835 -0.937369 0.0187829 0.430133 0.114637 -1.666 -4.77575 -9.30798 2.03217e-016 0 3.88251e-019 6.44306 -18.8699 5.11387 0.0776596 23.278 -0.343323 0.771755 -3.84502 1.73921 
-190.538 83.285 -16.8055 -4.1922 -8.16661 60.8571 4.87005 18.3993 -2.55195 1.95038 -0.767418 -0.24716 -1.00177 8.06365 3.37461 -3.37993 -9.45426 6.58447 -0 0 0 -0 0 0 1.2749e-013 -1.28453e-012 2.8168e-013 54.4224 35.5623 0.418646 -16.7524 -10.4193 29.6095 -0.000302536 0.56186 0.0789662 -1.39609e-009 1.91659e-010 -5.05312e-010 -2.41079e-009 3.29629e-010 -8.71039e-010 -1.39608e-009 1.91664e-010 -5.05315e-010 7.73091 5.47488 0.417314 -1.39609e-009 1.91664e-010 -5.05318e-010 2.90554 0.965183 0.102902 -1.39608e-009 1.91667e-010 -5.05313e-010 10.2786 0.731801 0.0259123 -1.39609e-009 1.91665e-010 -5.05308e-010 2.22167 -0.733487 -0.20892 1.27477e-013 -1.28453e-012 2.81463e-013 -65.5111 17.8528 4.03903 18.8104 -12.8815 -33.4095 0.00210365 -1.4818 0.208288 -2.77655e-009 7.12578e-010 3.70325e-010 -4.80349e-009 1.23357e-009 6.443e-010 -2.77656e-009 7.12584e-010 3.7034e-010 -7.73091 5.47488 -0.417314 -2.77655e-009 7.12582e-010 3.70326e-010 -2.90554 0.965183 -0.102902 -2.77656e-009 7.12582e-010 3.7033e-010 -10.2786 0.731801 -0.0259123 -2.77655e-009 7.1258e-010 3.70322e-010 -2.22167 -0.733487 0.20892 -2.03217e-016 0 -3.88251e-019 6.77782 7.04901 -1.36828 0.0259418 1.57904 0.200327 -3.19279 -8.63988 -13.745 2.03217e-016 0 3.88251e-019 10.9445 -24.3158 7.66677 0.173356 30.8649 -0.491257 0.988913 -5.63599 2.57897 
-190.532 83.2891 -16.8012 -3.59945 -5.75432 73.9032 6.52122 22.4145 -3.18012 2.47746 -0.939354 -0.284108 -1.35121 9.82287 4.1343 -3.82689 -11.4822 8.08141 -0 0 0 -0 0 0 1.49491e-013 -1.50758e-012 3.43599e-013 66.2571 43.3515 0.571829 -19.0077 -11.8127 36.3222 -0.000581462 0.688533 0.0967717 -1.62319e-009 8.58782e-011 -5.9386e-010 -2.80351e-009 1.46595e-010 -1.0241e-009 -1.62319e-009 8.58837e-011 -5.93864e-010 7.73091 5.47488 0.417314 -1.62319e-009 8.58841e-011 -5.93867e-010 2.90554 0.965183 0.102902 -1.62319e-009 8.58871e-011 -5.93863e-010 10.2786 0.731801 0.0259123 -1.62319e-009 8.58841e-011 -5.93857e-010 2.22167 -0.733487 -0.20892 1.49491e-013 -1.50758e-012 3.43401e-013 -80.2257 21.7468 5.0561 20.9732 -14.2871 -41.098 0.00399682 -1.80486 0.253741 -3.16636e-009 7.9968e-010 3.46111e-010 -5.4774e-009 1.38441e-009 6.03635e-010 -3.16636e-009 7.99686e-010 3.46127e-010 -7.73091 5.47488 -0.417314 -3.16636e-009 7.99685e-010 3.46111e-010 -2.90554 0.965183 -0.102902 -3.16637e-009 7.99684e-010 3.46117e-010 -10.2786 0.731801 -0.0259123 -3.16636e-009 7.99682e-010 3.46108e-010 -2.22167 -0.733487 0.20892 -2.03217e-016 0 -3.88251e-019 8.48432 9.02248 -1.66004 0.0288788 2.37637 0.259969 -4.61984 -11.2242 -16.9219 2.03217e-016 0 3.88251e-019 14.4009 -28.039 9.6237 0.268963 36.1434 -0.614064 1.18114 -6.90193 3.20633 
-190.529 83.2905 -16.8062 -3.47464 -4.31466 78.8297 7.17199 23.9742 -3.43263 2.68373 -1.0139 -0.298344 -1.50482 10.5106 4.43569 -3.974 -12.2579 8.67764 -0 0 0 -0 0 0 1.45202e-013 -1.48985e-012 3.75691e-013 70.8846 46.3986 0.65013 -19.7753 -12.2183 38.9506 -0.000724375 0.744555 0.104647 -1.57947e-009 -2.83988e-010 -5.89804e-010 -2.7295e-009 -4.92427e-010 -1.01824e-009 -1.57947e-009 -2.83983e-010 -5.89811e-010 7.73091 5.47488 0.417314 -1.57947e-009 -2.83985e-010 -5.8981e-010 2.90554 0.965183 0.102902 -1.57947e-009 -2.83982e-010 -5.89808e-010 10.2786 0.731801 0.0259123 -1.57947e-009 -2.83984e-010 -5.89803e-010 2.22167 -0.733487 -0.20892 1.45199e-013 -1.48985e-012 3.75502e-013 -86.032 23.2835 5.49427 21.6802 -14.6236 -44.1149 0.00486286 -1.92843 0.271133 -2.90379e-009 6.93494e-010 1.07376e-010 -5.02188e-009 1.20073e-009 1.92151e-010 -2.90379e-009 6.93498e-010 1.07391e-010 -7.73091 5.47488 -0.417314 -2.90379e-009 6.93497e-010 1.07375e-010 -2.90554 0.965183 -0.102902 -2.90379e-009 6.93496e-010 1.07379e-010 -10.2786 0.731801 -0.0259123 -2.90379e-009 6.93495e-010 1.07371e-010 -2.22167 -0.733487 0.20892 -2.03217e-016 0 -3.88251e-019 9.13165 9.81031 -1.74547 0.0295416 2.68092 0.282954 -5.26169 -12.2133 -18.1846 2.03217e-016 0 3.88251e-019 15.8146 -29.4508 10.4523 0.313818 38.1892 -0.668153 1.28667 -7.43905 3.53893 
-190.525 83.2934 -16.8057 -3.45782 -4.46925 78.2374 7.05943 23.7832 -3.39134 2.66099 -1.01885 -0.296376 -1.49447 10.4354 4.40388 -3.96208 -12.1502 8.6151 -0 0 0 -0 0 0 1.22185e-013 -1.3002e-012 3.86127e-013 70.3955 46.0589 0.648926 -19.6803 -12.163 38.6271 -0.000730409 0.750109 0.105427 -1.34255e-009 -8.3935e-010 -5.19557e-010 -2.32251e-009 -1.45174e-009 -8.98782e-010 -1.34255e-009 -8.39346e-010 -5.19568e-010 7.73091 5.47488 0.417314 -1.34255e-009 -8.3935e-010 -5.19562e-010 2.90554 0.965183 0.102902 -1.34255e-009 -8.39348e-010 -5.19561e-010 10.2786 0.731801 0.0259123 -1.34255e-009 -8.39349e-010 -5.19557e-010 2.22167 -0.733487 -0.20892 1.22167e-013 -1.3002e-012 3.8594e-013 -85.3986 23.1446 5.48014 21.5979 -14.5828 -43.7598 0.00473716 -1.90952 0.268472 -2.17713e-009 4.5008e-010 -2.8256e-010 -3.76292e-009 7.79553e-010 -4.80707e-010 -2.17713e-009 4.5008e-010 -2.82548e-010 -7.73091 5.47488 -0.417314 -2.17713e-009 4.5008e-010 -2.82562e-010 -2.90554 0.965183 -0.102902 -2.17713e-009 4.50078e-010 -2.82561e-010 -10.2786 0.731801 -0.0259123 -2.17713e-009 4.50079e-010 -2.82568e-010 -2.22167 -0.733487 0.20892 -2.03217e-016 0 -3.88251e-019 9.01231 9.75167 -1.68117 0.029417 2.6335 0.279702 -5.19194 -12.1216 -18.0362 2.03217e-016 0 3.88251e-019 15.6204 -29.242 10.3874 0.307734 37.9261 -0.662169 1.31606 -7.45657 3.65812 
-190.521 83.2961 -16.8052 -3.48221 -5.24354 75.4354 6.64647 22.8919 -3.23679 2.54743 -0.995148 -0.288682 -1.41624 10.0574 4.23871 -3.88912 -11.6908 8.28905 -0 0 0 -0 0 0 9.33451e-014 -1.04418e-012 3.76094e-013 67.8634 44.3652 0.61112 -19.2401 -11.9224 37.1266 -0.000678291 0.735372 0.103356 -1.0367e-009 -1.36348e-009 -4.21309e-010 -1.79632e-009 -2.35703e-009 -7.30915e-010 -1.0367e-009 -1.36348e-009 -4.21325e-010 7.73091 5.47488 0.417314 -1.0367e-009 -1.36349e-009 -4.21313e-010 2.90554 0.965183 0.102902 -1.0367e-009 -1.36349e-009 -4.21314e-010 10.2786 0.731801 0.0259123 -1.0367e-009 -1.36348e-009 -4.21311e-010 2.22167 -0.733487 -0.20892 9.33089e-014 -1.04418e-012 3.75904e-013 -82.187 22.3341 5.28281 21.1989 -14.3891 -42.0572 0.00422078 -1.83385 0.257822 -1.32838e-009 1.79839e-010 -6.64798e-010 -2.29285e-009 3.11911e-010 -1.14064e-009 -1.32838e-009 1.79835e-010 -6.6479e-010 -7.73091 5.47488 -0.417314 -1.32838e-009 1.79836e-010 -6.64801e-010 -2.90554 0.965183 -0.102902 -1.32838e-009 1.79834e-010 -6.64803e-010 -10.2786 0.731801 -0.0259123 -1.32837e-009 1.79837e-010 -6.6481e-010 -2.22167 -0.733487 0.20892 -2.03217e-016 0 -3.88251e-019 8.59182 9.35596 -1.56187 0.0289664 2.44628 0.265994 -4.83755 -11.5952 -17.3255 2.03217e-016 0 3.88251e-019 14.7863 -28.3849 9.96301 0.281424 36.7417 -0.632208 1.30912 -7.26189 3.67559 
